<?xml version="1.0" encoding="utf-8"?>
<!-- Generator: Adobe Illustrator 22.1.0, SVG Export Plug-In . SVG Version: 6.00 Build 0)  -->
<svg version="1.1" id="Layer_1" xmlns="http://www.w3.org/2000/svg" xmlns:xlink="http://www.w3.org/1999/xlink" x="0px" y="0px"
	 viewBox="0 0 283.5 91.7" style="enable-background:new 0 0 283.5 91.7;" xml:space="preserve">
<style type="text/css">
	.st0{clip-path:url(#SVGID_2_);}
	.st1{fill:#1D1D1B;}
	.st2{fill:#0097D9;}
	.st3{clip-path:url(#SVGID_4_);}
	.st4{fill:#005D82;}
	.st5{fill:none;stroke:#0097D9;stroke-width:0.75;}
	.st6{clip-path:url(#SVGID_6_);}
	.st7{fill:#575756;}
	.st8{clip-path:url(#SVGID_8_);fill:#575756;}
</style>
<title>Artboard 1</title>
<g>
	<g>
		<g>
			<defs>
				<rect id="SVGID_1_" x="18.4" y="30.5" width="262.6" height="69.6"/>
			</defs>
			<clipPath id="SVGID_2_">
				<use xlink:href="#SVGID_1_"  style="overflow:visible;"/>
			</clipPath>
			<g class="st0">
				<path class="st1" d="M39.3,68.3c0,0.2-0.2,0.3-0.5,0.3h-0.6l-4.1-0.1L30,68.6h-0.5c-0.4,0-0.6-0.1-0.6-0.3
					c0-0.2,0.3-0.4,0.9-0.4c1.9,0,2.9-0.2,2.9-0.6c0-0.1,0-0.2,0-0.3l-0.3-0.8l-0.2-0.5c-0.2-0.7-0.7-2.1-1.4-4.4h-7
					c-0.8,1.9-1.5,3.9-1.9,6c0,0.3,0.1,0.5,0.4,0.5c0,0,0.6,0,1.6,0.1c0.6,0,0.9,0.1,0.9,0.3c0,0.2-0.3,0.3-0.8,0.3
					c-1,0-2.1,0-3.5-0.1h-1c-0.3,0-0.7,0-1,0.1H18c-0.3,0-0.5-0.1-0.5-0.3c0-0.2,0.3-0.3,1-0.3c0.5,0,1-0.1,1.4-0.3
					c0.4-0.3,0.6-0.6,0.7-1.1c2.8-8,5-14.4,6.8-19.2c0.1-0.3,0.2-0.6,0.3-0.9l0.3-0.5c0-0.2,0.1-0.4,0.3-0.4s0.1,0,0.2,0.2
					c0.3,0.8,0.9,2.6,1.9,5.3c0.8,2.1,2.7,7.4,5.7,15.8c0.1,0.4,0.3,0.7,0.7,0.9c0.5,0.2,1.1,0.3,1.7,0.2C39,68,39.3,68.1,39.3,68.3
					z M30.6,60.5l-1.8-4.8l-1.6-4.5c-0.9,2.4-2,5.5-3.3,9.3H30.6z"/>
				<path class="st1" d="M48.8,56.3c0,0.5-0.2,0.9-0.5,1.2S47.6,58,47.1,58c-0.4,0-0.7-0.1-1-0.3s-0.4-0.5-0.4-0.9
					c0-0.3,0.1-0.6,0.3-0.8s0.3-0.4,0.3-0.5c0-0.3-0.2-0.5-0.7-0.5c-0.7,0.1-1.3,0.5-1.6,1.1c-0.6,1.6-0.9,3.2-0.7,4.9v6.4
					c0,0.2,0.1,0.4,0.3,0.5c0.5,0.1,1.1,0.1,1.7,0.1c0.2,0,0.4,0.1,0.4,0.3c0,0.1-0.1,0.2-0.4,0.2H39c-0.3,0-0.5-0.1-0.5-0.2
					s0.1-0.2,0.4-0.2h0.5c0.7,0,1.2-0.1,1.3-0.3c0-0.4,0-0.8,0-1.2v-9c0-1.2-0.2-1.9-0.5-2.1c-0.5-0.2-1.1-0.3-1.7-0.3
					c-0.3,0-0.4-0.1-0.4-0.2c0-0.2,0.1-0.2,0.3-0.2h0.2c0.3,0,0.7,0,1,0H40c0.9,0,1.8-0.3,2.7-0.7l0.4-0.2l0.3-0.1
					c0.1,0.5,0.1,1,0.1,1.6V56c0.4-1.3,1.6-2.1,2.9-2.2c0.7,0,1.4,0.2,1.8,0.7C48.6,55.1,48.8,55.7,48.8,56.3z"/>
				<path class="st1" d="M64.7,68.3c0,0.2-0.2,0.2-0.5,0.2h-6c-0.3,0-0.4-0.1-0.4-0.2s0.1-0.2,0.2-0.2c0.1,0,0.5,0,1.2,0
					c0.4,0,0.7-0.1,0.7-0.2c0.1-0.3,0.1-0.7,0.1-1v-6.3c0.1-1.4,0-2.8-0.3-4.2c-0.3-0.9-1.2-1.5-2.2-1.4c-1.1,0-2.1,0.5-2.7,1.4
					c-0.2,0.3-0.4,0.7-0.3,1.2v10.1c0,0.3,0.2,0.4,0.7,0.4h1c0.2,0,0.3,0.1,0.3,0.2c0,0.2-0.1,0.2-0.4,0.2h-5.9
					c-0.3,0-0.5-0.1-0.5-0.2s0.2-0.2,0.6-0.3h0.8c0.3,0,0.5-0.1,0.6-0.2l0.1-0.5v-7c0-2.5,0-3.8,0-4.1s-0.2-0.3-0.8-0.3h-0.9
					c-0.4,0-0.6-0.1-0.6-0.2s0.2-0.3,0.7-0.3c0.7,0,1.4-0.2,2.1-0.4c0.6-0.1,1.1-0.4,1.6-0.7c0.1-0.1,0.3-0.2,0.5-0.3
					c0.1,0,0.2,0.2,0.2,0.6v1.6c1-1.4,2.6-2.2,4.3-2.2c1.4-0.1,2.7,0.6,3.4,1.7c0.5,1.2,0.7,2.4,0.6,3.7v7.4c0,0.4,0,0.8,0.1,1.1
					c0.3,0.2,0.6,0.2,0.9,0.2h0.6C64.6,68.1,64.7,68.2,64.7,68.3z"/>
				<path class="st1" d="M78.4,67c0,0.4-0.4,0.7-1.1,1.1s-1.4,0.6-2.2,0.6c-1.2,0.1-2.2-0.7-2.3-1.9c0-0.1,0-0.3,0-0.4
					c-0.7,1.5-2.2,2.5-3.8,2.4c-0.8,0-1.7-0.3-2.3-0.8c-0.6-0.5-0.9-1.3-0.9-2.1c0-1.8,1.1-3.2,3.2-4.2c1.2-0.5,2.5-0.8,3.8-1v-0.8
					c0.1-1.3,0-2.5-0.3-3.8c-0.3-1-1.3-1.7-2.3-1.6c-0.7,0-1.4,0.2-1.9,0.6c-0.5,0.4-0.8,0.9-0.8,1.6c0,0.2,0.1,0.3,0.4,0.3
					s0.6,0.2,0.7,0.4c0.2,0.2,0.3,0.6,0.3,0.9c0.1,0.7-0.3,1.3-1,1.4c-0.1,0-0.3,0-0.4,0c-0.5,0-0.9-0.2-1.2-0.5
					c-0.3-0.3-0.5-0.8-0.5-1.3c0-1,0.4-2,1.2-2.6c1-0.8,2.4-1.3,3.7-1.2c2.4,0,3.8,0.6,4.3,1.9c0.2,1,0.3,2,0.3,2.9V65
					c0,1,0,1.5,0,1.8c0.1,0.8,0.4,1.2,0.9,1.2s1.1-0.2,1.4-0.6c0.2-0.2,0.4-0.4,0.5-0.4S78.4,66.9,78.4,67z M72.7,63.6v-2.4
					c-1.2,0.2-2.4,0.7-3.4,1.4c-0.7,0.6-1,1.5-1,2.4c0,0.6,0.2,1.2,0.6,1.7c0.4,0.4,0.9,0.7,1.4,0.7c1,0,1.9-0.6,2.3-1.6
					C72.7,65.1,72.8,64.4,72.7,63.6L72.7,63.6z"/>
				<path class="st1" d="M103.1,68.3c0,0.2-0.2,0.3-0.5,0.3H102l-4.1-0.1l-4.1,0.1h-0.5c-0.4,0-0.6-0.1-0.6-0.3
					c0-0.2,0.3-0.4,0.9-0.4c1.9,0,2.9-0.2,2.9-0.6c0-0.1,0-0.2,0-0.3l-0.3-0.9L96,65.7c-0.2-0.7-0.7-2.1-1.4-4.4h-7
					c-0.8,1.9-1.5,3.9-1.9,6c0,0.3,0.1,0.5,0.4,0.5c0,0,0.6,0,1.6,0.1c0.6,0,0.9,0.1,0.9,0.3c0,0.2-0.3,0.3-0.8,0.3
					c-1,0-2.1,0-3.5-0.1h-1c-0.3,0-0.7,0-1,0.1h-0.4c-0.3,0-0.5-0.1-0.5-0.3c0-0.2,0.3-0.3,1-0.3c0.5,0,1-0.1,1.4-0.3
					c0.4-0.3,0.6-0.6,0.7-1.1c2.8-8,5-14.4,6.8-19.2c0.1-0.3,0.2-0.6,0.3-0.9l0.1-0.6c0-0.2,0.1-0.4,0.3-0.4s0.1,0,0.2,0.2
					c0.3,0.8,0.9,2.6,1.9,5.3c0.8,2.1,2.7,7.4,5.7,15.8c0.1,0.4,0.3,0.7,0.7,0.9c0.5,0.2,1.1,0.3,1.7,0.2
					C102.8,68,103.1,68.1,103.1,68.3z M94.3,60.5l-1.8-4.8L91,51.2c-0.9,2.4-2,5.5-3.3,9.3H94.3z"/>
				<path class="st1" d="M114.4,57.3c0.1,0.7-0.4,1.4-1.2,1.4c-0.1,0-0.2,0-0.3,0c-1,0-1.4-0.5-1.4-1.4c0-0.4,0.2-0.7,0.3-1.1
					c0.1-0.1,0.1-0.3,0.1-0.5c0-0.4-0.3-0.9-0.7-1.1c-0.5-0.3-1.1-0.4-1.7-0.4c-1.2,0-2.4,0.6-3,1.7c-0.8,1.5-1.2,3.1-1,4.8
					c-0.1,1.8,0.3,3.7,1.1,5.3c0.6,1.2,1.8,1.9,3.1,1.9c0.9,0,1.7-0.3,2.4-0.8c0.5-0.4,0.9-0.9,1.3-1.4c0.1-0.1,0.2-0.1,0.3-0.2
					c0.2,0,0.3,0.1,0.3,0.3c0,0.2-0.4,0.8-1.1,1.6c-1,1-2.4,1.5-3.8,1.5c-1.8,0-3.5-0.7-4.7-2c-1.3-1.4-1.9-3.3-1.9-5.1
					c-0.1-2,0.6-4,2-5.5c1.2-1.4,3.1-2.2,5-2.2c1.2,0,2.4,0.3,3.4,1C113.8,55.5,114.4,56.4,114.4,57.3z"/>
				<path class="st1" d="M127.7,57.3c0.1,0.7-0.4,1.4-1.2,1.4c-0.1,0-0.2,0-0.3,0c-1,0-1.4-0.5-1.4-1.4c0-0.4,0.2-0.7,0.3-1.1
					c0.1-0.1,0.1-0.3,0.1-0.5c0-0.4-0.3-0.9-0.7-1.1c-0.5-0.3-1.1-0.4-1.7-0.4c-1.2,0-2.4,0.6-3,1.7c-0.8,1.4-1.2,3.1-1.1,4.7
					c-0.1,1.8,0.3,3.7,1.1,5.3c0.6,1.2,1.8,1.9,3.1,1.9c0.9,0,1.7-0.3,2.4-0.8c0.5-0.4,0.9-0.9,1.3-1.4c0.1-0.1,0.2-0.1,0.3-0.2
					c0.2,0,0.3,0.1,0.3,0.3c0,0.2-0.4,0.8-1.1,1.6c-1,1-2.3,1.6-3.7,1.5c-1.8,0-3.5-0.7-4.7-2c-1.3-1.4-1.9-3.3-1.9-5.1
					c-0.1-2,0.6-4,2-5.5c1.2-1.4,3.1-2.3,5-2.2c1.2,0,2.4,0.3,3.4,1C127.1,55.5,127.6,56.3,127.7,57.3z"/>
				<path class="st2" d="M142.6,61.5c0.1,1.9-0.6,3.8-1.9,5.3c-1.2,1.4-2.9,2.2-4.8,2.1c-1.9,0-3.7-0.7-4.9-2.1
					c-1.3-1.4-2-3.3-2-5.3c-0.1-2,0.6-3.9,1.9-5.4c1.2-1.4,2.9-2.2,4.8-2.2c1.9,0,3.6,0.8,4.9,2.2C142,57.6,142.7,59.5,142.6,61.5z
					 M139.7,61.5c0.1-1.9-0.3-3.8-1.1-5.5c-0.6-1-1.6-1.5-2.7-1.4c-1.2,0-2.4,0.7-2.9,1.9c-0.8,1.6-1.1,3.4-1,5.2
					c-0.1,1.8,0.3,3.5,1.1,5.1c0.6,1.1,1.8,1.8,3,1.8c0.9,0.1,1.7-0.4,2.2-1.1C139.4,65.6,139.8,63.5,139.7,61.5L139.7,61.5z"/>
				<path class="st1" d="M159.8,67.5c0,0.2-0.2,0.2-0.7,0.3c-1.5,0.1-3,0.4-4.4,1.1c-0.1,0-0.2,0-0.2,0c-0.1,0-0.2-0.1-0.2-0.3v-1.8
					c-0.9,1.3-2.4,2.1-4.1,2.1c-1.3,0.1-2.6-0.4-3.4-1.4c-0.2-0.3-0.4-0.7-0.5-1.1c-0.1-0.9-0.1-1.7-0.1-2.6v-7.3
					c0-0.4,0-0.9-0.1-1.3c-0.1-0.1-0.4-0.2-0.9-0.2h-0.4c-0.6,0-0.9-0.1-0.9-0.3c0-0.1,0.2-0.2,0.5-0.2c0.4,0,0.9,0,1.7,0.1h0.6
					c0.7,0,1.4,0,2.1-0.1v9c-0.1,1.1,0,2.2,0.3,3.3c0.3,0.8,1.2,1.4,2.1,1.3c1.1,0.1,2-0.5,2.5-1.4c0.4-1,0.6-2.2,0.5-3.3v-4.9
					c0-0.5,0-1.1-0.1-1.6v-1.1c0-0.3-0.1-0.5-0.2-0.6c-0.2-0.1-0.5-0.1-0.7-0.1c-0.9,0-1.4-0.1-1.4-0.3s0.2-0.3,0.7-0.2h4.4v9
					c0,1,0,2,0.1,2.9c0.1,0.4,0.2,0.7,0.5,0.7c0.6,0.1,1.2,0.1,1.8,0.1C159.6,67.2,159.8,67.2,159.8,67.5z"/>
				<path class="st1" d="M175.2,68.3c0,0.2-0.2,0.2-0.5,0.2h-5.9c-0.3,0-0.4-0.1-0.4-0.2s0.1-0.2,0.2-0.2c0.1,0,0.5,0,1.2,0
					c0.4,0,0.6-0.1,0.7-0.2c0.1-0.3,0.1-0.7,0.1-1v-6.3c0.1-1.4,0-2.8-0.3-4.2c-0.3-0.9-1.2-1.5-2.2-1.4c-1.1,0-2.1,0.5-2.7,1.4
					c-0.2,0.3-0.4,0.7-0.3,1.2v10.1c0,0.3,0.2,0.4,0.7,0.4h1c0.2,0,0.3,0.1,0.3,0.2c0,0.2-0.1,0.2-0.4,0.2h-5.9
					c-0.3,0-0.5-0.1-0.5-0.2s0.2-0.2,0.6-0.3h0.7c0.3,0,0.5-0.1,0.6-0.2l0.1-0.5v-7c0-2.5,0-3.8,0-4.1s-0.3-0.3-0.8-0.3h-0.9
					c-0.4,0-0.6-0.1-0.6-0.2c0-0.2,0.2-0.3,0.7-0.3c0.7,0,1.4-0.2,2.1-0.4c0.6-0.1,1.1-0.4,1.6-0.7c0.1-0.1,0.3-0.2,0.5-0.3
					c0.1,0,0.2,0.2,0.2,0.6v1.6c1-1.4,2.6-2.2,4.3-2.2c1.4-0.1,2.7,0.6,3.4,1.7c0.5,1.2,0.7,2.4,0.6,3.7v7.4c0,0.4,0,0.8,0.1,1.1
					c0.3,0.2,0.6,0.2,0.9,0.2h0.6C175.1,68.1,175.2,68.2,175.2,68.3z"/>
				<path class="st1" d="M185.1,66.6c0,0.2-0.3,0.5-0.8,1c-0.9,0.8-2.1,1.3-3.3,1.3c-1,0.1-1.9-0.3-2.7-0.9c-0.5-0.9-0.7-2-0.5-3
					v-9.6c0-0.2-0.2-0.4-0.4-0.4h-1.2c-0.5,0-0.7-0.1-0.7-0.2c0-0.1,0.1-0.2,0.4-0.3c1.6-0.1,3.1-1.1,3.9-2.5
					c0.1-0.2,0.3-0.3,0.5-0.3c0.1,0,0.2,0.1,0.2,0.2c0,0,0,0,0,0.1v0.7c0,0.6,0,1.2,0.1,1.8c0.3,0,0.7,0,1,0c0.8,0,1.6,0,2.4-0.2
					h0.2c0.2,0,0.3,0.1,0.3,0.3s-0.9,0.5-2.6,0.5h-1.3v6c-0.1,1.9,0,3.8,0.2,5.7c0.1,0.7,0.7,1.2,1.4,1.1c0.9-0.1,1.8-0.5,2.4-1.2
					c0.1-0.1,0.2-0.2,0.3-0.2C185,66.4,185.1,66.5,185.1,66.6z"/>
				<path class="st1" d="M192.3,68.3c0,0.2-0.2,0.3-0.5,0.3H191c-0.7,0-1.2,0-1.6,0H186c-0.1,0.1-0.2,0.1-0.4,0.1s-0.4-0.1-0.4-0.2
					s0.2-0.3,0.6-0.3c0.5,0,0.9,0,1.4-0.2c0.1-0.4,0.2-0.9,0.1-1.4v-9.9c0-0.3,0-0.6-0.1-1c0-0.1-0.2-0.1-0.4-0.1h-1.3
					c-0.2,0-0.4-0.1-0.4-0.2c0-0.2,0.2-0.2,0.5-0.2c1.3,0,2.6-0.4,3.7-1l0.3-0.2c0.2,0.6,0.3,1.2,0.3,1.8v10.4c0,0.5,0,1,0,1.5
					c0,0.2,0.2,0.3,0.3,0.3c0.5,0.1,1,0.1,1.4,0.1C192.2,68,192.3,68.1,192.3,68.3z M189.9,48.2c0.1,0.7-0.4,1.4-1.1,1.4
					c-0.1,0-0.2,0-0.3,0c-0.4,0-0.8-0.1-1-0.4c-0.3-0.3-0.4-0.6-0.4-1c0-1,0.5-1.5,1.4-1.5c0.7-0.1,1.4,0.4,1.4,1.1
					C189.9,47.9,189.9,48,189.9,48.2L189.9,48.2z"/>
				<path class="st1" d="M208.3,68.3c0,0.2-0.2,0.2-0.5,0.2h-6c-0.3,0-0.4-0.1-0.4-0.2s0.1-0.2,0.2-0.2c0.1,0,0.5,0,1.2,0
					c0.4,0,0.7-0.1,0.7-0.2c0.1-0.3,0.1-0.7,0.1-1v-6.3c0.1-1.4,0-2.8-0.3-4.2c-0.3-0.9-1.2-1.5-2.2-1.4c-1.1,0-2.1,0.5-2.7,1.4
					c-0.2,0.3-0.3,0.8-0.3,1.2v10.1c0,0.3,0.2,0.4,0.7,0.4h1c0.2,0,0.3,0.1,0.3,0.2c0,0.2-0.1,0.2-0.4,0.2h-5.9
					c-0.3,0-0.5,0-0.5-0.2s0.2-0.2,0.6-0.3h0.8c0.3,0,0.5-0.1,0.6-0.2l0.1-0.5v-7c0-2.5,0-3.8,0-4.1s-0.3-0.4-0.8-0.4h-0.9
					c-0.4,0-0.6-0.1-0.6-0.2c0-0.2,0.2-0.3,0.7-0.3c0.7,0,1.4-0.2,2.1-0.4c0.6-0.1,1.1-0.4,1.6-0.7c0.1-0.1,0.3-0.2,0.5-0.3
					c0.1,0,0.2,0.2,0.2,0.6v1.6c1-1.4,2.6-2.2,4.3-2.2c1.4-0.1,2.7,0.6,3.4,1.7c0.5,1.2,0.7,2.4,0.6,3.7v7.4c0,0.4,0,0.8,0.1,1.1
					c0.3,0.2,0.6,0.2,0.9,0.2h0.6C208.2,68.1,208.3,68.2,208.3,68.3z"/>
				<path class="st1" d="M224.4,55.9c0,1-0.4,1.4-1.3,1.4c-0.3,0-0.6-0.1-0.8-0.3s-0.4-0.4-0.4-0.7c0-0.1,0-0.3,0.1-0.4
					c0.1-0.1,0.1-0.3,0.1-0.4c0-0.3-0.2-0.4-0.5-0.4s-0.6,0.2-0.7,0.4c-0.2,0.2-0.3,0.5-0.4,0.8c0,0,0,0.4,0.2,1.1
					c0.1,0.5,0.1,1,0.2,1.5c0,1.4-0.5,2.7-1.5,3.7s-2.4,1.5-3.8,1.4c-0.7-0.1-1.4-0.2-2.1-0.5c-0.2-0.1-0.4-0.1-0.5-0.1
					c-0.5,0-0.9,0.2-1.2,0.5c-0.3,0.3-0.5,0.7-0.5,1.2c0,1.1,0.7,1.7,2,1.7c0.8,0,1.7-0.1,2.5-0.3c0.8-0.1,1.6-0.2,2.4-0.2
					c1.1-0.1,2.2,0.3,3.1,1c0.8,0.8,1.2,1.8,1.1,2.9c0,1.8-0.9,3.6-2.4,4.6c-1.7,1.3-3.9,1.9-6,1.9c-1.5,0.1-3-0.3-4.2-1.1
					c-1-0.7-1.6-1.8-1.5-3c-0.1-1.1,0.5-2.2,1.4-2.8c0.7-0.4,1.5-0.7,2.3-0.8c-1.5-0.6-2.3-1.5-2.3-2.8c0-1.6,1-2.6,3-3.2
					c-1.3-0.9-2-2.4-2-4c-0.1-1.4,0.4-2.8,1.4-3.7c1.7-1.4,4-1.8,6.1-1c0.7,0.4,1.4,0.8,1.9,1.4c0.5-0.9,1.5-1.5,2.6-1.5
					C223.8,54.3,224.4,54.8,224.4,55.9z M220.9,71.5c0-1.8-1.1-2.7-3.2-2.7c-0.9,0-1.8,0.1-2.7,0.3c-0.9,0.2-1.7,0.3-2.6,0.3
					c-1.1,0.6-1.8,1.8-1.7,3.1c0,1,0.4,2,1.2,2.7c0.9,0.7,2,1.1,3.1,1c1.5,0,3-0.4,4.1-1.4C220.3,74,220.9,72.8,220.9,71.5
					L220.9,71.5z M218.4,59.1c0-3.1-0.9-4.7-2.6-4.7s-2.5,1.5-2.5,4.4c0,3.3,0.9,4.9,2.7,4.9C217.6,63.7,218.4,62.2,218.4,59.1
					L218.4,59.1z"/>
			</g>
		</g>
	</g>
</g>
<path class="st1" d="M244.4,68.3c0,0.1-0.1,0.2-0.4,0.2h-0.5l-3.3-0.1l-3.3,0.1h-0.4c-0.3,0-0.5-0.1-0.5-0.3c0-0.2,0.2-0.3,0.7-0.3
	c1.5,0,2.3-0.2,2.3-0.5c0-0.1,0-0.1,0-0.2l-0.2-0.7l-0.1-0.4c-0.2-0.5-0.5-1.7-1.1-3.5H232c-0.7,1.5-1.2,3.1-1.6,4.8
	c0,0.2,0.1,0.4,0.3,0.4l1.3,0.1c0.5,0,0.7,0.1,0.7,0.3c0,0.2-0.2,0.3-0.7,0.3c-0.8,0-1.7,0-2.8-0.1h-0.8c-0.3,0-0.5,0-0.8,0.1h-0.3
	c-0.2,0-0.4-0.1-0.4-0.2c0-0.2,0.3-0.2,0.8-0.3c0.4,0,0.8-0.1,1.2-0.2c0.3-0.2,0.5-0.5,0.6-0.8c2.2-6.3,4-11.4,5.4-15.3
	c0.1-0.2,0.1-0.5,0.2-0.7l0.1-0.5c0-0.2,0.1-0.3,0.2-0.3c0.1,0,0.1,0,0.1,0.2c0.2,0.7,0.7,2.1,1.5,4.2c0.6,1.7,2.2,5.9,4.6,12.6
	c0.1,0.3,0.3,0.6,0.5,0.7c0.4,0.1,0.9,0.2,1.3,0.2C244.2,68.1,244.4,68.2,244.4,68.3z M237.4,62.1l-1.4-3.8l-1.2-3.6
	c-0.7,1.9-1.6,4.4-2.6,7.4L237.4,62.1z"/>
<path class="st1" d="M255.9,63.5c0,1.5-0.6,2.8-1.7,3.8c-1.1,1-2.6,1.6-4.1,1.6c-1.2-0.1-2.3-0.3-3.3-0.8c-0.2-0.1-0.5-0.2-0.8-0.2
	c-0.2,0-0.3,0.2-0.4,0.7c0,0.2-0.1,0.4-0.3,0.4s-0.3-0.1-0.3-0.3c0-0.1,0-0.2,0-0.3c0.1-1,0.2-1.9,0.2-2.9c0-0.2,0-0.7,0-1.4
	c0-0.1,0-0.3,0-0.4c0-0.3,0.1-0.4,0.3-0.4s0.3,0.2,0.4,0.6c0.5,3.1,1.9,4.7,4.3,4.7c0.9,0.1,1.8-0.3,2.4-0.9
	c0.6-0.7,0.9-1.6,0.9-2.5s-0.3-1.8-0.8-2.5c-0.8-0.9-1.8-1.6-2.9-2c-1.3-0.6-2.5-1.4-3.5-2.4c-0.7-0.8-1-1.8-1-2.9
	c0-1.3,0.5-2.6,1.4-3.5s2.2-1.5,3.5-1.4c0.8,0.1,1.7,0.3,2.4,0.6c0.3,0.1,0.5,0.2,0.8,0.2c0.1,0,0.3,0,0.4-0.1
	c0.1-0.2,0.2-0.4,0.2-0.5c0-0.2,0.1-0.3,0.3-0.3l0,0c0.2,0,0.3,0.1,0.3,0.3c0,0.1,0,0.2,0,0.3c-0.1,0.5-0.1,1-0.1,1.4
	c0,0.7,0,1.3,0.1,2v0.4c0,0.2,0,0.3-0.2,0.3s-0.3-0.2-0.4-0.6c-0.2-1-0.6-1.9-1.4-2.5c-0.6-0.6-1.5-1-2.4-1c-0.8,0-1.5,0.3-2.1,0.8
	c-0.5,0.6-0.8,1.4-0.8,2.3c0,1,0.4,2,1.1,2.7c0.8,0.6,1.7,1.2,2.7,1.6c1.3,0.6,2.5,1.4,3.5,2.5C255.6,61.3,255.9,62.4,255.9,63.5z"
	/>
<g>
	<g>
		<g>
			<defs>
				<rect id="SVGID_3_" x="18.4" y="30.5" width="262.6" height="69.6"/>
			</defs>
			<clipPath id="SVGID_4_">
				<use xlink:href="#SVGID_3_"  style="overflow:visible;"/>
			</clipPath>
			<g class="st3">
				<path class="st4" d="M128.4,41.3c-5.9-6.9-14.5-10.9-23.6-10.8c-16.8,0-30.3,13.1-30.3,29.2c0,8.9,4.2,17.3,11.3,22.7
					C81.4,77.2,79,70.7,79,64c0-16.1,13.6-29.2,30.3-29.2C116.2,34.8,123,37.1,128.4,41.3"/>
			</g>
		</g>
	</g>
</g>
<line class="st5" x1="139.5" y1="48.4" x2="128.6" y2="52.8"/>
<g>
	<g>
		<g>
			<defs>
				<rect id="SVGID_5_" x="18.4" y="30.5" width="262.6" height="69.6"/>
			</defs>
			<clipPath id="SVGID_6_">
				<use xlink:href="#SVGID_5_"  style="overflow:visible;"/>
			</clipPath>
			<g class="st6">
				<path class="st2" d="M132.8,47.7c-0.2,0.3-0.6,0.5-1,0.5c-0.6,0-1.1-0.3-1.4-0.8c-0.4-0.7-0.5-1.5-0.5-2.3s0.1-1.6,0.5-2.3
					c0.2-0.5,0.7-0.8,1.3-0.8c0.5,0,1,0.2,1.2,0.7c0.4,0.8,0.5,1.6,0.5,2.5C133.4,46,133.2,46.9,132.8,47.7 M133.8,42.7
					c-0.6-0.6-1.4-1-2.2-1s-1.6,0.3-2.2,1c-0.6,0.7-0.9,1.5-0.9,2.4s0.3,1.7,0.9,2.4c0.6,0.6,1.4,1,2.2,0.9c0.8,0,1.6-0.3,2.1-0.9
					c0.6-0.6,0.9-1.5,0.9-2.4C134.8,44.2,134.5,43.3,133.8,42.7"/>
			</g>
		</g>
	</g>
</g>
<path class="st7" d="M94.5,87c0,0-0.1,0.1-0.3,0.1c0.2,0,0.1,0-0.3,0h-1.8H92c-0.1,0-0.1,0-0.2-0.1s0-0.1,0.1-0.1h0.3
	c0.1,0,0.3,0,0.4-0.1c0.1,0,0.1-0.2,0.1-0.5v-1.2l0,0c0,0-0.1,0-0.3,0h-1.3l-0.2,0.3l-0.7,1.1c-0.1,0.1-0.1,0.2-0.1,0.3
	c0,0.1,0.2,0.2,0.5,0.2h0.2H91c0.1,0,0.1,0,0.1,0.1s0,0.1-0.2,0.1h-0.5h-0.8h-0.7c-0.1,0-0.2,0-0.2-0.1s0,0,0.1,0H89h0.2
	c0.2,0,0.3,0,0.5-0.1c0.2-0.2,0.4-0.4,0.5-0.6l2.1-3.3l0.6-0.9l0.6-1c0-0.1,0.1-0.1,0.1-0.1s0.1,0,0.1,0.1c0,0.2,0,0.3,0,0.5
	c0,0.3,0,0.9,0,1.6v3.1c0,0.3,0,0.4,0,0.5c0,0,0.1,0.3,0.3,0.3h0.5C94.5,87.2,94.5,87,94.5,87z M92.8,82.5L92.8,82.5
	C92.8,82.4,92.8,82.4,92.8,82.5c-0.1,0.1-0.1,0.1-0.1,0.2l-0.2,0.4l-0.8,1.2l-0.3,0.5l0,0c0,0,0,0,0.1,0h0.6c0.3,0,0.5,0,0.8,0V83
	C92.9,82.9,92.9,82.8,92.8,82.5C92.9,82.5,92.9,82.5,92.8,82.5L92.8,82.5z"/>
<path class="st7" d="M100.5,83.5L100.5,83.5L100.5,83.5l-0.7,2.4c-0.1,0.3-0.2,0.6-0.2,0.8c0,0.1,0.1,0.2,0.2,0.2l0,0
	c0.2,0,0.4-0.2,0.6-0.5c0-0.1,0.1-0.1,0.1-0.1l0,0c0,0.1-0.1,0.3-0.4,0.5c-0.2,0.1-0.4,0.2-0.6,0.2s-0.3,0-0.5-0.1
	c0.1,0,0-0.1,0-0.2s0-0.2,0-0.3v-0.3c-0.2,0.3-0.5,0.6-0.8,0.9c-0.2,0.1-0.5,0.2-0.7,0.2s-0.4,0-0.6-0.1c-0.1-0.1-0.2-0.2-0.3-0.3
	c0-0.2,0-0.5,0.1-0.7l0.6-2l0.1-0.3l0,0c0,0-0.1,0-0.2,0s-0.3,0-0.3-0.1s0,0,0,0h0.4c0.2,0,0.4,0,0.6-0.1l0,0l0,0
	c0,0.1-0.1,0.3-0.1,0.4c-0.1,0.2-0.2,0.5-0.2,0.8l-0.2,0.6l-0.2,0.8c-0.1,0.2-0.1,0.5-0.1,0.7s0.1,0.2,0.3,0.2s0.5-0.2,0.8-0.5
	c0.4-0.5,0.6-1,0.8-1.6l0.4-1.3c0,0,0-0.1,0.1-0.1h0.2h0.3l0,0C100.2,83.6,100.5,83.5,100.5,83.5z"/>
<path class="st7" d="M105.2,83.5c0,0.1-0.1,0.1-0.3,0.1h-0.5l-0.8,2.6c-0.1,0.2-0.1,0.3-0.1,0.5c0,0.1,0.1,0.2,0.3,0.2
	c0.3,0,0.5-0.2,0.6-0.4c0,0,0-0.1,0.1-0.1s0,0,0.1,0s0,0.2-0.2,0.4c-0.2,0.2-0.5,0.3-0.7,0.3s-0.4-0.1-0.5-0.2s-0.2-0.2-0.2-0.4
	c0-0.2,0.1-0.4,0.1-0.6l0.8-2.4h-0.4c-0.1,0-0.1,0-0.2,0s0-0.1,0.1-0.1h0.4l0.1-0.4c0-0.1,0-0.2,0.1-0.2h0.3c0.1,0,0.2,0,0.3-0.1
	l0,0l0,0v0.2l-0.1,0.4h0.7C105.1,83.4,105.2,83.5,105.2,83.5z"/>
<path class="st7" d="M110.4,84.8c0.1,0.7-0.2,1.4-0.7,1.8c-0.4,0.4-0.9,0.6-1.4,0.6c-0.3,0-0.7-0.1-0.9-0.4
	c-0.3-0.3-0.4-0.6-0.5-0.9c0-0.3,0-0.7,0.2-1c0.1-0.3,0.4-0.6,0.6-0.9c0.4-0.4,0.8-0.6,1.4-0.6c0.3,0,0.7,0.1,0.9,0.4
	C110.2,84.1,110.4,84.4,110.4,84.8z M109.7,84.2c0-0.4-0.3-0.6-0.7-0.6c-0.4,0-0.8,0.3-1.1,1c-0.2,0.6-0.3,1.2-0.3,1.8
	c0,0.4,0.3,0.6,0.7,0.6c0.4,0,0.8-0.3,1.1-0.9C109.6,85.6,109.7,84.9,109.7,84.2z"/>
<path class="st7" d="M115.8,83.8c0,0.1,0,0.2-0.1,0.3c-0.1,0.1-0.1,0.1-0.2,0.1s-0.1,0-0.1-0.1V84v-0.1c0-0.1-0.1-0.2-0.2-0.2l0,0
	c-0.2,0-0.4,0.2-0.6,0.5c-0.3,0.4-0.5,0.9-0.7,1.4l-0.4,1.4c0,0.1-0.1,0.2-0.1,0.2H113h-0.2l0,0h-0.1l0,0v-0.1l1-3.3c0,0,0,0-0.1,0
	h-0.2c-0.1,0-0.1,0-0.1,0s0.1,0,0.4,0c0.2,0,0.4,0,0.6-0.1h0.1l0,0c0,0.1,0,0.2-0.1,0.3l-0.2,0.8c0.4-0.7,0.9-1.1,1.2-1.1
	C115.5,83.6,115.7,83.6,115.8,83.8z"/>
<path class="st7" d="M119.3,83.5L119.3,83.5c-0.1,0.2-0.1,0.4-0.1,0.5l-0.7,2.3c-0.1,0.2-0.1,0.4-0.1,0.6c0,0.1,0.1,0.2,0.3,0.2l0,0
	c0.1,0,0.3,0,0.4-0.1s0.2-0.2,0.3-0.3l0.1-0.1l0,0c0,0,0,0.2-0.2,0.3c-0.2,0.2-0.5,0.3-0.8,0.3c-0.2,0-0.4-0.1-0.5-0.2
	s-0.2-0.2-0.2-0.4c0-0.2,0-0.5,0.1-0.7l0.6-2c0-0.1,0-0.2,0.1-0.2l0,0c0,0-0.1-0.1-0.4-0.1c-0.2,0-0.1,0-0.1,0v-0.1h0.6
	C118.9,83.5,119,83.5,119.3,83.5L119.3,83.5C119.1,83.5,119.3,83.4,119.3,83.5z M119.7,81.9c0,0.2-0.1,0.4-0.3,0.4
	c-0.1,0-0.2,0-0.3-0.1c-0.1-0.1-0.1-0.2-0.1-0.3c0-0.2,0.1-0.4,0.4-0.4S119.6,81.6,119.7,81.9L119.7,81.9z"/>
<path class="st7" d="M124.3,84.1c0,0.1,0,0.2,0,0.2c-0.1,0.1-0.3,0.1-0.4,0c-0.1,0-0.1-0.1-0.1-0.2s0-0.2,0.1-0.2h0.1h0.1l0,0
	c0-0.1-0.1-0.2-0.2-0.3c-0.1-0.1-0.3-0.1-0.4-0.1c-0.2,0-0.3,0.1-0.4,0.2s-0.2,0.3-0.1,0.4c0.1,0.4,0.3,0.8,0.5,1.2
	c0.1,0.2,0.1,0.3,0.2,0.5c0.2,0.6-0.2,1.3-0.9,1.4c-0.1,0-0.2,0-0.4,0c-0.3,0-0.6-0.1-0.9-0.3c-0.2-0.2-0.4-0.4-0.4-0.7
	c0-0.1,0-0.3,0.1-0.4s0.2-0.2,0.3-0.2c0.1,0,0.2,0,0.3,0.1c0.1,0.1,0.1,0.2,0.1,0.3c0,0.2,0,0.3-0.2,0.3s-0.3,0-0.3-0.2V86l0,0
	c0,0,0-0.1-0.1-0.1s-0.1,0-0.1,0.1s0,0.2,0,0.3c0,0.2,0.2,0.4,0.3,0.6c0.2,0.2,0.4,0.2,0.7,0.2c0.2,0,0.4-0.1,0.6-0.2
	c0.1-0.1,0.2-0.3,0.2-0.5c-0.1-0.3-0.1-0.5-0.3-0.8c-0.1-0.3-0.2-0.5-0.3-0.8c-0.1-0.3,0-0.7,0.2-0.9c0.2-0.2,0.5-0.4,0.8-0.4
	c0.2,0,0.4,0.1,0.6,0.2C124.2,83.8,124.3,83.9,124.3,84.1z"/>
<path class="st7" d="M129.5,84c0,0.3-0.1,0.6-0.4,0.8c-0.4,0.2-0.8,0.3-1.2,0.3h-0.6c-0.2,0.4-0.2,0.8-0.2,1.2
	c0.1,0.5,0.3,0.8,0.8,0.8c0.4,0,0.7-0.2,1-0.5c0-0.1,0.1-0.1,0.1-0.1l0,0c0,0.1-0.1,0.3-0.3,0.5c-0.6,0.4-1.3,0.4-1.9,0
	c-0.3-0.2-0.4-0.5-0.5-0.8c0-0.7,0.3-1.4,0.8-1.9c0.4-0.5,0.9-0.7,1.5-0.8C129.2,83.4,129.5,83.6,129.5,84z M128.9,83.8
	c0-0.2-0.1-0.3-0.3-0.3l0,0c-0.2,0-0.4,0.1-0.5,0.2c-0.3,0.3-0.6,0.7-0.7,1.1h0.2c0.3,0,0.6-0.1,0.9-0.3
	C128.7,84.5,128.9,84.2,128.9,83.8z"/>
<path class="st7" d="M134.5,83.8c0,0.1,0,0.2-0.1,0.3c-0.1,0.1-0.1,0.1-0.2,0.1c-0.1,0-0.1,0-0.1-0.1V84v-0.1c0-0.1-0.1-0.2-0.2-0.2
	l0,0c-0.2,0-0.4,0.2-0.6,0.5c-0.3,0.4-0.5,0.9-0.7,1.4l-0.4,1.4c0,0.1-0.1,0.2-0.1,0.2h-0.3h-0.2l0,0h-0.1l0,0v-0.1l1-3.3
	c0,0,0,0-0.1,0h-0.2c-0.1,0-0.1,0-0.1,0s0.1,0,0.4,0c0.2,0,0.4,0,0.6-0.1h0.1l0,0c0,0.1,0,0.2-0.1,0.3l-0.2,0.8
	c0.4-0.7,0.9-1.1,1.2-1.1C134.2,83.6,134.4,83.6,134.5,83.8z"/>
<path class="st7" d="M138.7,83.5c0,0.1-0.1,0.1-0.3,0.1h-0.5l-0.8,2.6c-0.1,0.2-0.1,0.3-0.1,0.5c0,0.1,0.1,0.2,0.3,0.2
	c0.3,0,0.5-0.2,0.6-0.4c0,0,0-0.1,0.1-0.1s0,0,0.1,0s0,0.2-0.2,0.4c-0.2,0.2-0.5,0.3-0.7,0.3s-0.4-0.1-0.5-0.2s-0.2-0.2-0.2-0.4
	c0-0.2,0.1-0.4,0.1-0.6l0.8-2.4H137c-0.1,0-0.1,0-0.2,0c0,0,0-0.1,0.1-0.1h0.4l0.1-0.4c0-0.1,0-0.2,0.1-0.2h0.3c0.1,0,0.2,0,0.3-0.1
	l0,0l0,0v0.2l-0.1,0.4L138.7,83.5C138.6,83.4,138.6,83.5,138.7,83.5z"/>
<path class="st7" d="M154.1,84c0,0.3-0.1,0.6-0.4,0.8c-0.4,0.2-0.8,0.3-1.2,0.3h-0.6c-0.2,0.4-0.2,0.8-0.2,1.2
	c0.1,0.5,0.3,0.8,0.8,0.8c0.4,0,0.7-0.2,1-0.5c0-0.1,0.1-0.1,0.1-0.1l0,0c0,0.1-0.1,0.3-0.3,0.5c-0.6,0.4-1.3,0.4-1.9,0
	c-0.3-0.2-0.4-0.5-0.5-0.8c0-0.7,0.3-1.4,0.8-1.9c0.4-0.5,0.9-0.7,1.5-0.8C153.7,83.4,154,83.6,154.1,84z M153.4,83.8
	c0-0.2-0.1-0.3-0.3-0.3l0,0c-0.2,0-0.4,0.1-0.5,0.2c-0.3,0.3-0.6,0.7-0.7,1.1h0.2c0.3,0,0.6,0,0.9-0.2
	C153.3,84.5,153.5,84.2,153.4,83.8L153.4,83.8z"/>
<path class="st7" d="M159.8,83.7c0,0.2,0,0.3-0.2,0.3c-0.1,0-0.3-0.1-0.3-0.2l0,0l0,0v-0.1l0,0c0,0-0.1,0-0.2,0.2
	c-0.1,0.1-0.1,0.2-0.1,0.3v0.1c0.1,0.2,0.1,0.3,0.2,0.5c0.1,0.4,0,0.7-0.3,1s-0.6,0.5-1,0.4c-0.3,0-0.7-0.1-0.9-0.3
	c-0.4,0.2-0.6,0.3-0.6,0.5c0,0.1,0.1,0.2,0.3,0.2s0.4,0,0.5,0h0.7c0.2,0,0.5,0,0.7,0c0.4,0.1,0.7,0.5,0.7,0.9
	c0.1,0.4-0.1,0.9-0.3,1.2c-0.4,0.4-0.9,0.6-1.4,0.5c-0.4,0-0.8-0.1-1.2-0.3c-0.4-0.2-0.6-0.5-0.7-0.9c0-0.2,0.1-0.5,0.4-0.6
	c0.2-0.1,0.4-0.2,0.6-0.3c-0.3-0.1-0.5-0.3-0.6-0.6c-0.1-0.4,0.2-0.7,0.9-0.9c-0.2-0.2-0.3-0.5-0.4-0.7c-0.1-0.4,0.1-0.8,0.3-1.1
	c0.3-0.3,0.7-0.5,1.1-0.5c0.4,0,0.7,0.2,0.9,0.5c0.2-0.3,0.4-0.5,0.6-0.5C159.6,83.4,159.8,83.5,159.8,83.7L159.8,83.7z M159.1,88
	c0-0.1-0.1-0.3-0.2-0.4c-0.1-0.1-0.2-0.2-0.4-0.2c-0.3,0-0.6,0-0.9,0h-1c-0.3,0.1-0.5,0.5-0.4,0.8c0,0.3,0.2,0.6,0.4,0.8
	c0.3,0.2,0.6,0.3,0.9,0.3c0.4,0,0.8-0.1,1.1-0.4C159,88.7,159.1,88.3,159.1,88L159.1,88z M158.4,84.2c0-0.4-0.2-0.6-0.6-0.6
	c-0.3,0-0.6,0.2-0.6,0.7c-0.1,0.4-0.2,0.8-0.1,1.2c0,0.3,0.2,0.6,0.6,0.6c0,0,0,0,0.1,0c0.3,0,0.5-0.2,0.6-0.7
	C158.4,85,158.5,84.5,158.4,84.2L158.4,84.2z"/>
<path class="st7" d="M165.3,84.1c0,0.2,0,0.5-0.1,0.7l-0.5,1.6c0,0.1-0.1,0.2-0.1,0.4c0,0.1,0.1,0.2,0.2,0.2l0,0
	c0.3,0,0.5-0.2,0.7-0.4l0,0l0,0c0,0-0.1,0.2-0.2,0.3c-0.2,0.2-0.5,0.3-0.8,0.3c-0.2,0-0.3,0-0.5-0.1c-0.1-0.1-0.2-0.2-0.2-0.3
	c0-0.2,0-0.4,0.1-0.5l0.6-1.5c0.1-0.2,0.2-0.5,0.2-0.8c0-0.2-0.1-0.3-0.3-0.3l0,0c-0.4,0.1-0.7,0.3-0.9,0.6
	c-0.3,0.4-0.5,0.8-0.6,1.2l-0.5,1.6c0,0.1,0,0.1-0.1,0.1h-0.6l0,0l0,0v-0.1l0.9-3.1v-0.1c0,0-0.1,0-0.2,0c-0.1,0-0.3,0-0.3-0.1
	s0,0,0.1,0h0.4c0.2,0,0.4,0,0.6,0h0.1l0,0l0,0l-0.2,0.8l0.2-0.2c0.3-0.4,0.7-0.6,1.1-0.7c0.2,0,0.4,0.1,0.6,0.2
	C165,83.9,165.2,84,165.3,84.1z"/>
<path class="st7" d="M170.7,84.1c0,0.1,0,0.2,0,0.2c-0.1,0.1-0.1,0.1-0.2,0.1c-0.1,0-0.3-0.1-0.3-0.2l0,0c0-0.1,0-0.2,0.1-0.2h0.1
	h0.1l0,0c0,0-0.1-0.2-0.2-0.3c-0.1-0.1-0.3-0.1-0.4-0.1c-0.2,0-0.3,0.1-0.4,0.2c-0.1,0.1-0.2,0.3-0.1,0.4c0.1,0.4,0.3,0.8,0.5,1.2
	c0.1,0.2,0.1,0.3,0.2,0.5c0.2,0.6-0.2,1.3-0.9,1.4c-0.1,0-0.2,0-0.4,0c-0.3,0-0.6-0.1-0.9-0.3c-0.2-0.2-0.4-0.4-0.4-0.7
	c0-0.1,0-0.3,0.1-0.4s0.2-0.2,0.3-0.2s0.2,0,0.3,0.1s0.1,0.2,0.1,0.3c0,0.2,0,0.3-0.2,0.3s-0.3,0-0.3-0.2v-0.1l0,0
	c0,0,0-0.1-0.1-0.1s-0.1,0-0.1,0.1s0,0.2,0,0.3c0,0.2,0.2,0.4,0.3,0.6c0.2,0.2,0.4,0.2,0.7,0.2c0.2,0,0.4-0.1,0.6-0.2
	c0.1-0.1,0.2-0.3,0.2-0.5c-0.1-0.3-0.1-0.5-0.3-0.8c-0.1-0.3-0.2-0.7-0.2-1c-0.1-0.3,0-0.7,0.2-0.9c0.2-0.2,0.5-0.4,0.8-0.4
	c0.2,0,0.4,0.1,0.6,0.2C170.6,83.7,170.6,83.9,170.7,84.1z"/>
<path class="st7" d="M176.6,83.8c0,0.1,0,0.2,0,0.3c-0.1,0.1-0.1,0.1-0.2,0.1c-0.1,0-0.3-0.1-0.3-0.2l0,0v-0.2
	c0-0.1-0.1-0.2-0.2-0.2s-0.4,0.3-0.8,0.9c-0.1,0.1-0.2,0.3-0.3,0.4s-0.1,0.1-0.2,0.1h0.2c0.4,0,0.7,0.3,0.7,0.6c0,0.3,0,0.6,0,0.9
	c0,0.1,0,0.3,0,0.4s0.1,0.2,0.2,0.2c0.2,0,0.4-0.1,0.4-0.3c0.1-0.2,0.2-0.4,0.3-0.7c0-0.1,0-0.2,0.1-0.2s0,0,0.1,0.1
	c0,0.2-0.1,0.4-0.2,0.6c-0.1,0.4-0.5,0.6-0.9,0.6c-0.3,0-0.6-0.2-0.7-0.5v-0.1c0-0.3,0-0.6,0-0.9c0-0.1,0-0.2,0-0.4
	c0-0.1-0.1-0.2-0.3-0.3c-0.1,0-0.2,0-0.3,0h-0.3l-0.6,2l0,0h-0.2h-0.2h-0.2l0,0l0,0v-0.1l0.1-0.2l1.4-5c0,0,0-0.1,0-0.2v-0.2
	c0,0,0,0,0-0.1c0,0,0-0.1-0.2-0.1h-0.4h-0.1c0,0,0,0,0-0.1h0.4c0.3,0,0.6,0,0.9,0h0.1l0,0c0,0.2-0.1,0.3-0.1,0.4l-0.9,2.9l-0.1,0.5
	h0.3c0.1,0.1,0.3,0,0.4-0.1c0.1-0.2,0.3-0.3,0.4-0.5c0.2-0.3,0.4-0.5,0.6-0.8c0.1-0.1,0.3-0.2,0.4-0.2
	C176.4,83.3,176.6,83.5,176.6,83.8z"/>
<path class="st7" d="M182.6,83.5c0,0.1,0,0.1,0,0.2l-0.9,2.6c-0.1,0.2-0.1,0.4-0.1,0.6c0,0.1,0.1,0.2,0.2,0.2l0,0
	c0.2,0,0.4-0.2,0.6-0.5c0,0,0-0.1,0.1-0.1l0,0c0,0,0,0.2-0.2,0.3c-0.2,0.3-0.5,0.4-0.8,0.4c-0.2,0-0.3,0-0.4-0.1
	c-0.1-0.1-0.2-0.2-0.2-0.3c0-0.1,0-0.2,0-0.3c-0.2,0.5-0.7,0.8-1.2,0.8c-0.3,0-0.6-0.1-0.8-0.3c-0.2-0.2-0.3-0.5-0.4-0.7
	c0-0.4,0-0.7,0.2-1.1s0.4-0.8,0.7-1.1c0.3-0.4,0.8-0.6,1.3-0.6c0.4,0,0.7,0.2,0.8,0.6l0.2-0.5c0-0.1,0-0.1,0.1-0.1h0.2
	c0.1,0,0.2,0,0.3,0l0,0C182.4,83.4,182.6,83.4,182.6,83.5z M181.6,84.2c0-0.2-0.1-0.3-0.2-0.4c-0.1-0.1-0.3-0.2-0.4-0.2
	c-0.3,0-0.6,0.2-0.8,0.5c-0.3,0.4-0.5,0.8-0.6,1.2c-0.1,0.4-0.2,0.7-0.1,1.1c0,0.4,0.2,0.6,0.5,0.6c0.2,0,0.4-0.1,0.6-0.3
	c0.2-0.2,0.4-0.5,0.4-0.7l0.5-1.4C181.6,84.4,181.6,84.3,181.6,84.2L181.6,84.2z"/>
<path class="st7" d="M188.6,84.4c0.1,0.7-0.1,1.4-0.6,1.9c-0.4,0.5-1,0.9-1.6,0.9c-0.4,0-0.7-0.2-0.9-0.5l-0.5,1.8
	c0,0.1,0,0.2,0,0.3c0,0.1-0.1,0.3-0.1,0.4c0.4,0,0.6,0,0.6,0.1s0,0-0.2,0h-1.6c-0.1,0-0.2,0-0.2,0s0-0.1,0.2-0.1
	c0.1,0,0.3,0,0.4-0.1c0.1-0.1,0.1-0.3,0.2-0.4l1.4-4.6c0-0.2,0.1-0.4,0.1-0.4s0,0-0.1,0h-0.2c-0.1,0-0.2,0-0.2,0s0,0,0.1,0h0.1
	c0.3,0,0.6,0,0.9,0h0.1l0,0c0,0.2-0.1,0.4-0.2,0.6c0.2-0.2,0.4-0.3,0.6-0.5c0.2-0.1,0.3-0.1,0.5-0.1c0.3,0,0.6,0.1,0.8,0.3
	C188.4,84,188.6,84.2,188.6,84.4z M187.9,84.1c0-0.3-0.2-0.5-0.5-0.5c-0.4,0-0.7,0.2-0.8,0.5c-0.3,0.4-0.4,0.8-0.5,1.3l-0.2,0.7
	c0,0.1,0,0.2,0,0.3c0,0.2,0.1,0.3,0.2,0.4c0.1,0.1,0.3,0.2,0.4,0.2c0.5,0,0.9-0.4,1.2-1.2C187.8,85.3,187.9,84.7,187.9,84.1z"/>
<path class="st7" d="M193.8,84.1c0,0.1,0,0.2,0,0.2c-0.1,0.1-0.1,0.1-0.2,0.1c-0.1,0-0.3-0.1-0.3-0.2l0,0c0-0.1,0-0.2,0.1-0.2h0.1
	h0.1l0,0c0,0-0.1-0.2-0.2-0.3c-0.1-0.1-0.3-0.1-0.4-0.1c-0.2,0-0.3,0.1-0.4,0.2c-0.1,0.1-0.2,0.3-0.1,0.4c0.1,0.4,0.3,0.8,0.5,1.2
	c0.1,0.2,0.1,0.3,0.2,0.5c0.2,0.6-0.2,1.3-0.9,1.4c-0.1,0-0.2,0-0.4,0c-0.3,0-0.6-0.1-0.9-0.3c-0.2-0.2-0.4-0.4-0.4-0.7
	c0-0.1,0-0.3,0.1-0.4s0.2-0.2,0.3-0.2s0.2,0,0.3,0.1s0.1,0.2,0.1,0.3c0,0.2,0,0.3-0.2,0.3s-0.3,0-0.3-0.2v-0.1l0,0
	c0,0,0-0.1-0.1-0.1s-0.1,0-0.1,0.1s0,0.2,0,0.3c0,0.2,0.2,0.4,0.3,0.6c0.2,0.2,0.4,0.2,0.7,0.2c0.2,0,0.4-0.1,0.6-0.2
	c0.1-0.1,0.2-0.3,0.2-0.5c-0.1-0.3-0.1-0.5-0.3-0.8c-0.1-0.3-0.2-0.5-0.3-0.8s0-0.7,0.2-0.9c0.2-0.2,0.5-0.4,0.8-0.4
	c0.2,0,0.4,0.1,0.6,0.2C193.6,83.8,193.7,83.9,193.8,84.1z"/>
<path class="st7" d="M199.4,81.6c0,0.2,0,0.3-0.3,0.3c-0.1,0-0.1,0-0.2-0.1c-0.1,0-0.1-0.1-0.1-0.2s0-0.1,0.1-0.2v-0.1
	c0-0.1-0.1-0.2-0.4-0.2c-0.2,0-0.5,0.1-0.6,0.3c-0.2,0.4-0.3,0.9-0.4,1.3l-0.2,0.6h1c0.1,0,0.1,0,0.1,0.1c0,0,0,0.1-0.1,0.1h-1
	l-0.5,2c-0.2,1.1-0.6,2.1-1.2,3.1c-0.1,0.2-0.3,0.4-0.5,0.5s-0.4,0.1-0.6,0.1c-0.5,0-0.8-0.2-0.8-0.5c0-0.2,0.1-0.4,0.3-0.4
	s0.3,0.1,0.3,0.2s0,0.1,0,0.2v0.1c0,0.1,0.1,0.2,0.3,0.2c0.3,0,0.6-0.2,0.7-0.4c0.2-0.5,0.4-0.9,0.5-1.4l0.8-3.7H196h-0.2h-0.1
	c0,0,0-0.1,0.2-0.1h0.7c0.1-0.6,0.4-1.1,0.6-1.7c0.3-0.5,0.7-0.7,1.3-0.7c0.2,0,0.4,0,0.6,0.1C199.3,81.3,199.4,81.4,199.4,81.6z"/>
<path class="st7" d="M203.4,84.7c0.1,0.7-0.2,1.4-0.7,1.9c-0.4,0.4-0.9,0.6-1.4,0.6c-0.2,0-0.3,0-0.4-0.1l-0.4,0.7
	c0,0.1-0.1,0.1-0.1,0.1s-0.1,0-0.1-0.1v-0.1l0.4-0.7c-0.4-0.2-0.7-0.7-0.7-1.1c-0.1-0.6,0.2-1.2,0.6-1.7c0.4-0.5,0.9-0.8,1.6-0.8
	c0.2,0,0.4,0.1,0.5,0.1l0.3-0.6c0-0.1,0.1-0.1,0.1-0.1s0.1,0,0.1,0.1s0,0.1,0,0.2l-0.3,0.5C203.2,83.9,203.4,84.3,203.4,84.7z
	 M202.5,83.7c-0.1-0.1-0.3-0.2-0.5-0.2c-0.5,0-0.8,0.3-1.1,1c-0.3,0.6-0.4,1.2-0.3,1.9c0,0.1,0.1,0.3,0.1,0.4L202.5,83.7z
	 M202.7,84.2c0-0.1,0-0.2,0-0.2l-1.7,3.1c0.1,0,0.2,0.1,0.3,0.1c0.4,0,0.7-0.2,0.9-0.5c0.2-0.4,0.4-0.8,0.5-1.2
	C202.8,85,202.8,84.6,202.7,84.2L202.7,84.2z"/>
<path class="st7" d="M208.8,83.8c0,0.1,0,0.2-0.1,0.3c-0.1,0.1-0.1,0.1-0.2,0.1c-0.1,0-0.1,0-0.1-0.1V84v-0.1c0-0.1-0.1-0.2-0.2-0.2
	l0,0c-0.2,0-0.4,0.2-0.6,0.5c-0.3,0.4-0.5,0.9-0.7,1.4l-0.4,1.4c0,0.1-0.1,0.2-0.1,0.2H206h-0.2l0,0h-0.1l0,0v-0.1l1-3.3
	c0,0,0,0-0.1,0h-0.2c-0.1,0-0.1,0-0.1,0s0.1,0,0.4,0c0.2,0,0.4,0,0.6-0.1h0.1l0,0c0,0.1,0,0.2-0.1,0.3l-0.2,0.8
	c0.4-0.7,0.9-1.1,1.3-1.1C208.5,83.6,208.7,83.6,208.8,83.8z"/>
<path class="st7" d="M213.7,84c0,0.3-0.1,0.6-0.4,0.7c-0.4,0.2-0.8,0.3-1.2,0.3h-0.6c-0.2,0.4-0.2,0.8-0.2,1.2
	c0,0.5,0.3,0.8,0.8,0.8c0.4,0,0.7-0.2,1-0.5c0-0.1,0.1-0.1,0.1-0.1l0,0c0,0.1-0.1,0.3-0.3,0.5c-0.3,0.2-0.6,0.3-0.9,0.3
	c-0.4,0-0.7-0.1-1-0.3c-0.3-0.2-0.4-0.5-0.5-0.8c0-0.7,0.3-1.4,0.8-1.9c0.4-0.5,1-0.7,1.6-0.8C213.4,83.4,213.7,83.6,213.7,84z
	 M213.1,83.8c0-0.2-0.1-0.3-0.3-0.3l0,0c-0.2,0-0.4,0.1-0.5,0.2c-0.3,0.3-0.6,0.7-0.7,1.1h0.2c0.3,0,0.6-0.1,0.9-0.3
	C212.9,84.5,213.1,84.2,213.1,83.8z"/>
<path class="st7" d="M218.8,83.8c0,0.1,0,0.2-0.1,0.3c-0.1,0.1-0.1,0.1-0.2,0.1c-0.1,0-0.1,0-0.1-0.1V84v-0.1c0-0.1-0.1-0.2-0.2-0.2
	l0,0c-0.2,0-0.4,0.2-0.6,0.5c-0.3,0.4-0.5,0.9-0.7,1.4l-0.4,1.4c0,0.1-0.1,0.2-0.1,0.2h-0.3h-0.2l0,0h-0.1l0,0v-0.1l1-3.3
	c0,0,0,0-0.1,0h-0.2c-0.1,0-0.1,0-0.1,0s0.1,0,0.4,0c0.2,0,0.4,0,0.6-0.1h0.1l0,0c0,0.1,0,0.2-0.1,0.3l-0.2,0.8
	c0.4-0.7,0.9-1.1,1.2-1.1C218.4,83.6,218.7,83.6,218.8,83.8z"/>
<path class="st7" d="M223.4,84.1c0,0.1,0,0.2,0,0.2c-0.1,0.1-0.3,0.1-0.4,0c-0.1,0-0.1-0.1-0.1-0.2s0-0.2,0.1-0.2h0.1h0.1l0,0
	c0-0.1-0.1-0.2-0.2-0.3c-0.1-0.1-0.3-0.1-0.4-0.1c-0.2,0-0.3,0.1-0.4,0.2c-0.1,0.1-0.2,0.3-0.1,0.4c0.1,0.4,0.3,0.8,0.5,1.2
	c0.1,0.2,0.1,0.3,0.2,0.5c0.2,0.6-0.2,1.3-0.9,1.4c-0.1,0-0.2,0-0.4,0c-0.3,0-0.6-0.1-0.9-0.3c-0.2-0.2-0.4-0.4-0.4-0.7
	c0-0.1,0-0.3,0.1-0.4s0.2-0.2,0.3-0.2s0.2,0,0.3,0.1s0.1,0.2,0.1,0.3c0,0.2,0,0.3-0.2,0.3s-0.3,0-0.3-0.2V86l0,0c0,0,0-0.1-0.1-0.1
	s-0.1,0-0.1,0.1s0,0.2,0,0.3c0,0.2,0.2,0.4,0.4,0.6s0.4,0.2,0.7,0.2c0.2,0,0.4-0.1,0.6-0.2c0.1-0.1,0.2-0.3,0.2-0.5
	c-0.1-0.3-0.1-0.5-0.3-0.8c-0.1-0.3-0.2-0.5-0.3-0.8s0-0.7,0.2-0.9c0.2-0.2,0.5-0.4,0.8-0.4c0.2,0,0.4,0.1,0.6,0.2
	C223.2,83.8,223.3,83.9,223.4,84.1z"/>
<path class="st7" d="M228.5,84c0,0.3-0.1,0.6-0.4,0.8c-0.4,0.2-0.8,0.3-1.2,0.3h-0.6c-0.2,0.4-0.2,0.8-0.2,1.2
	c0.1,0.5,0.3,0.8,0.8,0.8c0.4,0,0.7-0.2,1-0.5c0-0.1,0.1-0.1,0.1-0.1l0,0c0,0.1-0.1,0.3-0.3,0.5c-0.6,0.4-1.3,0.4-1.9,0
	c-0.3-0.2-0.4-0.5-0.5-0.8c0-0.7,0.3-1.4,0.8-1.9c0.4-0.5,0.9-0.7,1.5-0.8C228.2,83.4,228.5,83.6,228.5,84z M227.9,83.8
	c0-0.2-0.1-0.3-0.3-0.3l0,0c-0.2,0-0.4,0.1-0.5,0.2c-0.3,0.3-0.6,0.7-0.7,1.1h0.2c0.3,0,0.6-0.1,0.9-0.3
	C227.7,84.5,227.9,84.2,227.9,83.8L227.9,83.8z"/>
<path class="st7" d="M232.9,81.1L232.9,81.1v0.3l-1.4,4.7c-0.1,0.2-0.1,0.4-0.1,0.7c0,0.2,0.1,0.2,0.3,0.2s0.5-0.2,0.6-0.4
	c0.1-0.1,0.1-0.2,0.1-0.2l0,0c0,0.1,0,0.2-0.2,0.4c-0.2,0.2-0.5,0.3-0.8,0.3c-0.5,0-0.7-0.2-0.8-0.5c0-0.2,0-0.5,0.1-0.7l1.4-4.7
	l0,0c0,0,0-0.1-0.2-0.1s-0.4,0-0.4,0l0,0h0.5h0.5h0.1C232.6,81.2,232.9,81,232.9,81.1z"/>
<path class="st7" d="M237.4,84.1c0,0.1,0,0.2,0,0.2c-0.1,0.1-0.3,0.1-0.4,0c-0.1,0-0.1-0.1-0.1-0.2s0-0.2,0.1-0.2h0.1h0.1l0,0
	c0-0.1-0.1-0.2-0.2-0.3c-0.1-0.1-0.3-0.1-0.4-0.1c-0.2,0-0.3,0.1-0.4,0.2c-0.1,0.1-0.2,0.3-0.1,0.4c0.1,0.4,0.3,0.8,0.5,1.2
	c0.1,0.2,0.1,0.3,0.2,0.5c0.2,0.6-0.2,1.3-0.9,1.4c-0.1,0-0.2,0-0.4,0c-0.3,0-0.6-0.1-0.9-0.3c-0.2-0.2-0.4-0.4-0.4-0.7
	c0-0.1,0-0.3,0.1-0.4s0.2-0.2,0.3-0.2s0.2,0,0.3,0.1s0.1,0.2,0.1,0.3c0,0.2,0,0.3-0.2,0.3s-0.3,0-0.3-0.2V86l0,0c0,0,0-0.1-0.1-0.1
	s-0.1,0-0.1,0.1s0,0.2,0,0.3c0,0.2,0.2,0.4,0.3,0.6c0.2,0.2,0.4,0.2,0.7,0.2c0.2,0,0.4-0.1,0.6-0.2c0.1-0.1,0.2-0.3,0.2-0.5
	c-0.1-0.3-0.1-0.5-0.3-0.8c-0.1-0.3-0.2-0.5-0.3-0.8s0-0.7,0.2-0.9c0.2-0.2,0.5-0.4,0.8-0.4c0.2,0,0.4,0.1,0.6,0.2
	C237.2,83.8,237.3,83.9,237.4,84.1z"/>
<path class="st7" d="M243.3,83.8c0,0.1,0,0.2,0,0.3c-0.1,0.1-0.1,0.1-0.2,0.1c-0.1,0-0.3-0.1-0.3-0.2l0,0v-0.2
	c0-0.1-0.1-0.2-0.2-0.2s-0.4,0.3-0.8,0.9c-0.1,0.1-0.2,0.3-0.3,0.4s-0.1,0.1-0.2,0.1h0.2c0.4,0,0.7,0.3,0.7,0.6c0,0.3,0,0.6,0,0.9
	c0,0.1,0,0.3,0,0.4s0.1,0.2,0.2,0.2c0.2,0,0.4-0.1,0.4-0.3c0.1-0.2,0.2-0.4,0.3-0.7c0-0.1,0-0.2,0.1-0.2s0,0,0.1,0.1
	c0,0.2-0.1,0.4-0.2,0.6c-0.1,0.4-0.5,0.6-0.9,0.6c-0.3,0-0.6-0.2-0.7-0.5v-0.1c0-0.3,0-0.6,0-0.9c0-0.1,0-0.2,0-0.4
	c0-0.1-0.1-0.2-0.3-0.3c-0.1,0-0.2,0-0.3,0h-0.3l-0.6,2l0,0h-0.2h-0.2h-0.2l0,0l0,0v-0.1l0.1-0.2l1.4-5v-0.2v-0.2c0,0,0,0,0-0.1
	c0,0,0-0.1-0.2-0.1h-0.4h-0.1c0,0,0,0,0-0.1h0.4c0.3,0,0.6,0,0.9,0h0.1l0,0c0,0.2-0.1,0.3-0.1,0.4l-0.9,2.9l-0.1,0.5h0.3
	c0.1,0,0.2,0,0.3-0.1c0.1-0.2,0.3-0.3,0.4-0.5c0.2-0.3,0.4-0.5,0.6-0.8c0.1-0.1,0.3-0.2,0.5-0.2C243.1,83.3,243.3,83.5,243.3,83.8z"
	/>
<path class="st7" d="M249.2,83.5c0,0.1,0,0.1,0,0.2l-0.8,2.6c-0.1,0.2-0.1,0.4-0.1,0.6c0,0.1,0.1,0.2,0.2,0.2l0,0
	c0.2,0,0.4-0.2,0.6-0.5c0,0,0-0.1,0.1-0.1l0,0c0,0,0,0.2-0.2,0.3c-0.2,0.3-0.5,0.4-0.8,0.4c-0.2,0-0.3,0-0.4-0.1
	c-0.1-0.1-0.2-0.2-0.2-0.3c0-0.1,0-0.2,0-0.3c-0.2,0.5-0.7,0.8-1.2,0.8c-0.3,0-0.6-0.1-0.8-0.3c-0.2-0.2-0.3-0.5-0.4-0.7
	c0-0.4,0-0.7,0.2-1.1s0.4-0.8,0.7-1.1c0.3-0.4,0.8-0.6,1.3-0.6c0.4,0,0.7,0.2,0.8,0.6l0.2-0.5c0-0.1,0-0.1,0.1-0.1h0.2
	c0.1,0,0.2,0,0.3,0l0,0C249.1,83.4,249.2,83.4,249.2,83.5z M248.2,84.2c0-0.2-0.1-0.3-0.2-0.4c-0.1-0.1-0.3-0.2-0.4-0.2
	c-0.3,0-0.6,0.2-0.8,0.5c-0.2,0.4-0.4,0.8-0.6,1.2c-0.1,0.4-0.2,0.7-0.1,1.1c0,0.4,0.2,0.6,0.5,0.6c0.2,0,0.4-0.1,0.6-0.3
	c0.2-0.2,0.4-0.5,0.4-0.7l0.5-1.4C248.2,84.4,248.3,84.3,248.2,84.2L248.2,84.2z"/>
<path class="st7" d="M255.3,84.4c0.1,0.7-0.1,1.4-0.6,1.9c-0.4,0.5-1,0.9-1.6,0.9c-0.4,0-0.7-0.2-0.9-0.5l-0.5,1.8
	c0,0.1,0,0.2,0,0.3c0,0.1-0.1,0.3-0.1,0.4c0.4,0,0.6,0,0.6,0.1s0,0-0.2,0h-1.6c-0.1,0-0.2,0-0.2,0s0-0.1,0.2-0.1
	c0.1,0,0.3,0,0.4-0.1c0.1-0.1,0.1-0.3,0.2-0.4l1.4-4.6c0-0.2,0.1-0.4,0.1-0.4s0,0-0.1,0h-0.3c-0.1,0-0.2,0-0.2,0s0,0,0.1,0h0.1
	c0.3,0,0.6,0,0.9,0h0.1l0,0c0,0.2-0.1,0.4-0.2,0.6c0.2-0.2,0.4-0.3,0.6-0.5c0.2-0.1,0.3-0.1,0.5-0.1c0.3,0,0.6,0.1,0.8,0.3
	C255.1,84,255.2,84.2,255.3,84.4z M254.6,84.1c0-0.3-0.2-0.5-0.5-0.5c-0.4,0-0.7,0.2-0.8,0.5c-0.3,0.4-0.5,0.8-0.6,1.3l-0.2,0.7
	c0,0.1,0,0.2,0,0.3c0,0.2,0.1,0.3,0.2,0.4c0.1,0.1,0.3,0.2,0.4,0.2c0.5,0,0.9-0.4,1.2-1.2C254.5,85.3,254.6,84.7,254.6,84.1
	L254.6,84.1z"/>
<g>
	<defs>
		<rect id="SVGID_7_" x="131.8" y="67.6" width="35.9" height="34.1"/>
	</defs>
	<clipPath id="SVGID_8_">
		<use xlink:href="#SVGID_7_"  style="overflow:visible;"/>
	</clipPath>
	<path class="st8" d="M148.9,83.5c-0.4,0-0.9,0.4-1.4,1.2l0.2-0.8c0.1-0.2,0.1-0.3,0.1-0.3c0,0,0-0.1-0.1-0.1c0,0,0,0-0.1,0
		c-0.1,0-0.3,0.1-0.6,0.1c-0.3,0-0.5,0-0.5,0.1c0,0,0.1,0.1,0.1,0.1h0.1c0.1,0,0.1,0,0.1,0h0c0.1,0,0.1,0,0.1,0.1l-1.1,3.6l0,0.1
		c0,0,0,0,0,0c0,0,0,0,0.1,0h0.1c0.1,0,0.1,0,0.3,0c0.1,0,0.2,0,0.3,0c0,0,0.1-0.1,0.1-0.2l0.5-1.5c0.2-0.6,0.5-1.1,0.7-1.5
		c0.3-0.4,0.5-0.5,0.7-0.5c0.1,0,0.2,0.1,0.3,0.2c0,0,0,0.1,0,0.1l0,0.1c0,0.1,0.1,0.1,0.2,0.1c0.1,0,0.2,0,0.3-0.1
		c0.1-0.1,0.1-0.2,0.1-0.3C149.4,83.6,149.2,83.5,148.9,83.5"/>
</g>
</svg>
