<?xml version="1.0" encoding="utf-8"?>
<!-- Generator: Adobe Illustrator 21.1.0, SVG Export Plug-In . SVG Version: 6.00 Build 0)  -->
<svg version="1.1" xmlns="http://www.w3.org/2000/svg" xmlns:xlink="http://www.w3.org/1999/xlink" x="0px" y="0px"
	 viewBox="0 0 167 182.3" style="enable-background:new 0 0 167 182.3;" xml:space="preserve">
<style type="text/css">
	.st0{fill:none;stroke:#262626;stroke-width:1.9368;stroke-miterlimit:10;}
	.st1{fill:#262626;}
	.st2{fill-rule:evenodd;clip-rule:evenodd;fill:#F7AAAC;}
	.st3{fill-rule:evenodd;clip-rule:evenodd;fill:#EB008B;}
	.st4{fill-rule:evenodd;clip-rule:evenodd;fill:#FFFFFF;}
	.st5{fill:none;stroke:#262626;stroke-width:2.2149;stroke-linecap:round;stroke-miterlimit:10;}
</style>
<g id="ramme">
	<g>
		<path class="st0" d="M134.7,181.3H12.3c-6.2,0-11.3-5.4-11.3-12V13C1,6.4,6.1,1,12.3,1h122.5c6.2,0,11.3,5.4,11.3,12v156.3
			C146,175.9,140.9,181.3,134.7,181.3z"/>
	</g>
	<path class="st1" d="M114.9,18.9"/>
</g>
<g id="flower">
	<g>
		<path class="st2" d="M89.6,51.2c7.1,7.2,9.4,14.8,0,23.3C80.3,65.9,82.6,58.3,89.6,51.2z"/>
		<path class="st3" d="M89.6,53.5c4.1,5.8,5.4,11.8,0,18.7C84.2,65.3,85.5,59.2,89.6,53.5z"/>
		<path class="st2" d="M89.6,46.7c7.1-7.2,9.4-14.8,0-23.3C80.3,31.9,82.6,39.5,89.6,46.7z"/>
		<path class="st3" d="M89.6,44.4c4.1-5.8,5.4-11.8,0-18.7C84.2,32.5,85.5,38.6,89.6,44.4z"/>
		<path class="st2" d="M87.7,50c-2.7,9.7-8.1,15.5-20.2,11.7C70.2,49.3,77.9,47.5,87.7,50z"/>
		<path class="st3" d="M85.7,51.2c-2.9,6.4-7.5,10.6-16.2,9.3C72.7,52.4,78.7,50.5,85.7,51.2z"/>
		<path class="st2" d="M91.6,47.8c9.8,2.5,17.5,0.7,20.2-11.7C99.7,32.3,94.3,38.1,91.6,47.8z"/>
		<path class="st3" d="M93.6,46.7c7,0.7,13-1.2,16.2-9.3C101.1,36,96.5,40.2,93.6,46.7z"/>
		<path class="st2" d="M87.7,47.8c-9.8,2.5-17.5,0.7-20.2-11.7C79.6,32.3,85,38.1,87.7,47.8z"/>
		<path class="st3" d="M85.7,46.7c-7,0.7-13-1.2-16.2-9.3C78.2,36,82.8,40.2,85.7,46.7z"/>
		<path class="st2" d="M91.6,50c2.7,9.7,8.1,15.5,20.2,11.7C109.1,49.3,101.3,47.5,91.6,50z"/>
		<path class="st3" d="M93.6,51.2c2.9,6.4,7.5,10.6,16.2,9.3C106.6,52.4,100.6,50.5,93.6,51.2z"/>
		<path class="st3" d="M89.6,54.8c-1.6,0-2.9-1.3-2.9-2.9c-1.6,0-2.9-1.3-2.9-2.9c0-1.6,1.3-2.9,2.9-2.9c0-1.6,1.3-2.9,2.9-2.9
			c1.6,0,2.9,1.3,2.9,2.9c1.6,0,2.9,1.3,2.9,2.9c0,1.6-1.3,2.9-2.9,2.9C92.6,53.5,91.3,54.8,89.6,54.8z"/>
		<path class="st4" d="M89.6,52c-0.8,0-1.5-0.7-1.5-1.5c-0.8,0-1.5-0.7-1.5-1.5c0-0.8,0.7-1.5,1.5-1.5c0-0.8,0.7-1.5,1.5-1.5
			c0.8,0,1.5,0.7,1.5,1.5c0.8,0,1.5,0.7,1.5,1.5c0,0.8-0.7,1.5-1.5,1.5C91.2,51.3,90.5,52,89.6,52z"/>
	</g>
</g>
<g id="statistic">
	<g>
		<line class="st5" x1="19.3" y1="150.4" x2="127.6" y2="150.4"/>
		<g>
			<rect x="41.3" y="61.1" class="st1" width="14.1" height="89.3"/>
			<rect x="66.5" y="84.7" class="st1" width="14.1" height="65.7"/>
			<rect x="91.6" y="84.7" class="st1" width="14.1" height="65.7"/>
		</g>
	</g>
</g>
</svg>
