<?xml version="1.0" encoding="UTF-8"?>
<svg id="Layer_1" xmlns="http://www.w3.org/2000/svg" version="1.1" viewBox="0 0 167 182.3">
  <!-- Generator: Adobe Illustrator 30.2.1, SVG Export Plug-In . SVG Version: 2.1.1 Build 1)  -->
  <defs>
    <style>
      .st0 {
        fill: #fff;
      }

      .st0, .st1, .st2 {
        fill-rule: evenodd;
      }

      .st1 {
        fill: #f7aaac;
      }

      .st3 {
        fill: #262626;
      }

      .st2 {
        fill: #eb008b;
      }

      .st4 {
        stroke-linecap: round;
        stroke-width: 3px;
      }

      .st4, .st5 {
        fill: none;
        stroke: #262626;
        stroke-miterlimit: 10;
      }

      .st5 {
        stroke-width: 1.9px;
      }
    </style>
  </defs>
  <g id="ramme">
    <path class="st5" d="M134.7,181.3H12.3c-6.2,0-11.3-5.4-11.3-12V13C1,6.4,6.1,1,12.3,1h122.5c6.2,0,11.3,5.4,11.3,12v156.3c-.1,6.6-5.2,12-11.4,12Z"/>
    <path class="st3" d="M114.9,18.9"/>
  </g>
  <g id="flower">
    <g>
      <path class="st1" d="M73.5,93.4c7.1,7.2,9.4,14.8,0,23.3-9.3-8.6-7-16.2,0-23.3Z"/>
      <path class="st2" d="M73.5,95.7c4.1,5.8,5.4,11.8,0,18.7-5.4-6.9-4.1-13,0-18.7Z"/>
      <path class="st1" d="M73.5,88.9c7.1-7.2,9.4-14.8,0-23.3-9.3,8.5-7,16.1,0,23.3Z"/>
      <path class="st2" d="M73.5,86.6c4.1-5.8,5.4-11.8,0-18.7-5.4,6.8-4.1,12.9,0,18.7Z"/>
      <path class="st1" d="M71.6,92.2c-2.7,9.7-8.1,15.5-20.2,11.7,2.7-12.4,10.4-14.2,20.2-11.7Z"/>
      <path class="st2" d="M69.6,93.4c-2.9,6.4-7.5,10.6-16.2,9.3,3.2-8.1,9.2-10,16.2-9.3Z"/>
      <path class="st1" d="M75.5,90c9.8,2.5,17.5.7,20.2-11.7-12.1-3.8-17.5,2-20.2,11.7Z"/>
      <path class="st2" d="M77.5,88.9c7,.7,13-1.2,16.2-9.3-8.7-1.4-13.3,2.8-16.2,9.3Z"/>
      <path class="st1" d="M71.6,90c-9.8,2.5-17.5.7-20.2-11.7,12.1-3.8,17.5,2,20.2,11.7Z"/>
      <path class="st2" d="M69.6,88.9c-7,.7-13-1.2-16.2-9.3,8.7-1.4,13.3,2.8,16.2,9.3Z"/>
      <path class="st1" d="M75.5,92.2c2.7,9.7,8.1,15.5,20.2,11.7-2.7-12.4-10.5-14.2-20.2-11.7Z"/>
      <path class="st2" d="M77.5,93.4c2.9,6.4,7.5,10.6,16.2,9.3-3.2-8.1-9.2-10-16.2-9.3Z"/>
      <path class="st2" d="M73.5,97c-1.6,0-2.9-1.3-2.9-2.9-1.6,0-2.9-1.3-2.9-2.9s1.3-2.9,2.9-2.9c0-1.6,1.3-2.9,2.9-2.9s2.9,1.3,2.9,2.9c1.6,0,2.9,1.3,2.9,2.9s-1.3,2.9-2.9,2.9c0,1.6-1.2,2.9-2.9,2.9Z"/>
      <path class="st0" d="M73.5,94.2c-.8,0-1.5-.7-1.5-1.5-.8,0-1.5-.7-1.5-1.5s.7-1.5,1.5-1.5c0-.8.7-1.5,1.5-1.5s1.5.7,1.5,1.5c.8,0,1.5.7,1.5,1.5s-.7,1.5-1.5,1.5c0,.8-.6,1.5-1.5,1.5Z"/>
    </g>
  </g>
  <g>
    <g>
      <line class="st4" x1="19.7" y1="23" x2="51" y2="58.8"/>
      <path class="st3" d="M58.9,67.9c-5.3-2.9-12.7-5.8-18.4-6.6l7.3-5.8,7-6.8c0,5.8,1.9,13.5,4.1,19.1Z"/>
    </g>
    <g>
      <line class="st4" x1="127" y1="23" x2="95.7" y2="58.8"/>
      <path class="st3" d="M87.8,67.9c5.3-2.9,12.7-5.8,18.4-6.6l-7.3-5.8-7-6.8c0,5.8-1.9,13.5-4.1,19.1Z"/>
    </g>
  </g>
  <g>
    <g>
      <line class="st4" x1="19.7" y1="161.6" x2="51" y2="125.8"/>
      <path class="st3" d="M58.9,116.7c-5.3,2.9-12.7,5.8-18.4,6.6l7.3,5.8,7,6.8c0-5.8,1.9-13.5,4.1-19.1Z"/>
    </g>
    <g>
      <line class="st4" x1="127" y1="161.6" x2="95.7" y2="125.8"/>
      <path class="st3" d="M87.8,116.7c5.3,2.9,12.7,5.8,18.4,6.6l-7.3,5.8-7,6.8c0-5.8-1.9-13.5-4.1-19.1Z"/>
    </g>
  </g>
</svg>