<?xml version="1.0" encoding="utf-8"?>
<!-- Generator: Adobe Illustrator 21.1.0, SVG Export Plug-In . SVG Version: 6.00 Build 0)  -->
<svg version="1.1" id="Layer_1" xmlns="http://www.w3.org/2000/svg" xmlns:xlink="http://www.w3.org/1999/xlink" x="0px" y="0px"
	 viewBox="0 0 167 182.3" style="enable-background:new 0 0 167 182.3;" xml:space="preserve">
<style type="text/css">
	.st0{fill:none;stroke:#262626;stroke-width:1.9368;stroke-miterlimit:10;}
	.st1{fill:#262626;}
	.st2{fill:none;stroke:#262626;stroke-width:5;stroke-miterlimit:10;stroke-dasharray:5.7155,5.7155;}
	.st3{fill:none;stroke:#EB008B;stroke-width:6;stroke-miterlimit:10;}
	.st4{fill:none;stroke:#262626;stroke-width:5;stroke-miterlimit:10;stroke-dasharray:6;}
	.st5{fill:none;stroke:#262626;stroke-width:5;stroke-miterlimit:10;}
</style>
<g>
	<path class="st0" d="M134.7,181.3H12.3c-6.2,0-11.3-5.4-11.3-12V13C1,6.4,6.1,1,12.3,1h122.5c6.2,0,11.3,5.4,11.3,12v156.3
		C146,175.9,140.9,181.3,134.7,181.3z"/>
	<circle class="st1" cx="74.3" cy="163.7" r="7.7"/>
	<g>
		<g>
			
				<ellipse transform="matrix(0.1357 -0.9908 0.9908 0.1357 -91.6491 138.699)" class="st2" cx="33.7" cy="121.9" rx="18.2" ry="18.2"/>
		</g>
		<circle class="st3" cx="81.3" cy="60.7" r="18.2"/>
		<line class="st4" x1="47.9" y1="101.8" x2="66.3" y2="78.8"/>
		<line class="st5" x1="96.6" y1="40.4" x2="106.5" y2="28.6"/>
		<polygon class="st1" points="113.6,20.2 95.6,26.7 110.2,39 		"/>
	</g>
	<path class="st1" d="M111.4,103c-1.6-1.7-2.5-2.7-3.5-3.7c-10-10.1-20-20.3-30.1-30.4c-2.6-2.6-4.1-5.5-3.2-9.2
		c1.7-6.4,9.3-8.5,14.3-3.8c5.1,4.8,10,9.8,15,14.7c0.9,0.8,1.8,1.6,2.9,2.5c1.2-10.9,5.2-13.1,13-8.4c1.9-2.6,3.3-6,5.7-7.2
		c2.3-1.2,5.8,0,9,0.2c0,0.5,0,0,0-0.5c-0.2-3.3,1.2-5.7,4.2-7s5.9-0.8,8.1,1.4c5,4.9,10.2,9.6,14.8,14.9c5.7,6.6,6.3,14.5,4.6,22.7
		c-3.2,15.8-15,27.8-29.9,30.5c-1.6,0.3-3.3,0.4-4.9,0.4c-12.7,0-25.5,0-38.2,0c-5.9,0-9.7-3.3-9.7-8.4c-0.1-5.1,3.7-8.5,9.5-8.6
		c2.9,0,5.9,0,8.8,0C104.6,103,107.4,103,111.4,103z"/>
</g>
</svg>
