<?xml version="1.0" encoding="utf-8"?>
<!-- Generator: Adobe Illustrator 21.1.0, SVG Export Plug-In . SVG Version: 6.00 Build 0)  -->
<svg version="1.1" xmlns="http://www.w3.org/2000/svg" xmlns:xlink="http://www.w3.org/1999/xlink" x="0px" y="0px"
	 viewBox="0 0 167 182.3" style="enable-background:new 0 0 167 182.3;" xml:space="preserve">
<style type="text/css">
	.st0{fill:none;stroke:#262626;stroke-width:1.9368;stroke-miterlimit:10;}
	.st1{fill:#262626;}
	.st2{fill:#EB008B;}
	.st3{fill:none;stroke:#262626;stroke-width:2.2683;stroke-miterlimit:10;}
	.st4{fill:none;stroke:#262626;stroke-width:1.7545;stroke-miterlimit:10;}
</style>
<g id="ramme">
	<g id="Layer_1_1_">
		<g>
			<path class="st0" d="M134.7,181.3H12.3c-6.2,0-11.3-5.4-11.3-12V13C1,6.4,6.1,1,12.3,1h122.5c6.2,0,11.3,5.4,11.3,12v156.3
				C146,175.9,140.9,181.3,134.7,181.3z"/>
		</g>
		<path class="st1" d="M114.9,18.9"/>
	</g>
</g>
<g id="pencil_1_">
	<g id="tupp">
	</g>
	<g id="bakende">
		<path class="st2" d="M104.1,27.7c1.8-5.9,8.2-9.2,14.1-7.3l0,0c5.9,1.8,9.2,8.2,7.3,14.1"/>
	</g>
	<g id="pencil">
		<path d="M91.6,141.8c0,0-15.2,17-17.6,16.2c-2.4-0.8-3.7-22.9-3.7-22.9"/>
		<path class="st3" d="M74,157.9c-2.4-0.8-3.7-22.9-3.7-22.9l33.8-107.3c1.8-5.9,8.2-9.2,14.1-7.3l0,0c5.9,1.8,9.2,8.2,7.3,14.1
			L91.6,141.8C91.6,141.8,76.5,158.7,74,157.9z"/>
	</g>
</g>
<g id="ruler_1_">
	<g id="ruler">
		<rect x="27.2" y="24.6" class="st4" width="28.2" height="127.9"/>
		<g>
			<line class="st4" x1="27.2" y1="45.9" x2="37.3" y2="45.9"/>
			<line class="st4" x1="27.2" y1="56.5" x2="42.4" y2="56.5"/>
			<line class="st4" x1="27.2" y1="77.8" x2="42.4" y2="77.8"/>
			<line class="st4" x1="27.2" y1="99.2" x2="42.4" y2="99.2"/>
			<line class="st4" x1="27.2" y1="120.5" x2="42.4" y2="120.5"/>
			<line class="st4" x1="27.2" y1="67.2" x2="37.3" y2="67.2"/>
			<line class="st4" x1="27.2" y1="88.6" x2="37.3" y2="88.6"/>
			<line class="st4" x1="27.2" y1="109.9" x2="37.3" y2="109.9"/>
			<line class="st4" x1="27.2" y1="131.2" x2="37.3" y2="131.2"/>
		</g>
	</g>
</g>
</svg>
