<?xml version="1.0" encoding="utf-8"?>
<!-- Generator: Adobe Illustrator 21.0.2, SVG Export Plug-In . SVG Version: 6.00 Build 0)  -->
<svg version="1.1" id="Layer_1" xmlns="http://www.w3.org/2000/svg" xmlns:xlink="http://www.w3.org/1999/xlink" x="0px" y="0px"
	 viewBox="0 0 107.9 118" style="enable-background:new 0 0 107.9 118;" xml:space="preserve">
<style type="text/css">
	.st0{fill:#B9348B;stroke:#FFFFFF;}
	.st1{fill:#EA9CC4;stroke:#FFFFFF;}
	.st2{fill:#007CB0;stroke:#FFFFFF;}
	.st3{fill:#10A0CB;stroke:#FFFFFF;}
	.st4{fill:#AFD4E8;stroke:#FFFFFF;}
</style>
<g>
	<path class="st0" d="M54.5,36.7c-1.9,0-3.7,0.2-5.5,0.7l-3.7-13.7c3-0.8,6.1-1.2,9.2-1.2L54.5,36.7C54.5,36.8,54.5,36.7,54.5,36.7z
		"/>
	<path class="st1" d="M49,37.5c-6.4,1.7-11,5.6-13.8,11.6l-12.9-6c4.6-10,12.4-16.5,23-19.3L49,37.5C49,37.5,49,37.5,49,37.5z"/>
	<path class="st2" d="M22.3,43.1l12.9,6c0,0,0,0,0,0c-3.4,7.3-2.6,15.1,2.1,21.6c0,0,0,0,0,0L25.8,79C17.9,68.2,16.6,55.2,22.3,43.1
		z"/>
	<path class="st3" d="M39.1,72.9c8.2,8.5,21.7,8.7,30.2,0.5c0,0,0,0,0,0l9.9,10.2c-14.1,13.6-36.6,13.3-50.3-0.9
		c-1.1-1.1-2.3-2.5-3.2-3.8l11.5-8.3C37.8,71.4,38.5,72.2,39.1,72.9z"/>
	<path class="st4" d="M75.8,58.1c0-11.8-9.5-21.3-21.3-21.3V22.5c19.6,0,35.6,15.9,35.6,35.6c0,10.2-3.5,18.5-10.9,25.6l-9.9-10.2
		C73.7,69.2,75.8,64.2,75.8,58.1z"/>
</g>
</svg>
