<?xml version="1.0" encoding="utf-8"?>
<!-- Generator: Adobe Illustrator 21.0.2, SVG Export Plug-In . SVG Version: 6.00 Build 0)  -->
<svg version="1.1" id="Layer_1" xmlns="http://www.w3.org/2000/svg" xmlns:xlink="http://www.w3.org/1999/xlink" x="0px" y="0px"
	 viewBox="0 0 170.8 169.7" style="enable-background:new 0 0 170.8 169.7;" xml:space="preserve">
<style type="text/css">
	.st0{fill:#B9348B;stroke:#FFFFFF;}
	.st1{fill:#EA9CC4;stroke:#FFFFFF;}
	.st2{fill:#007CB0;stroke:#FFFFFF;}
	.st3{fill:#10A0CB;stroke:#FFFFFF;}
	.st4{fill:#AFD4E8;stroke:#FFFFFF;}
</style>
<g>
	<path class="st0" d="M84.5,50.3c-3.1,0-6,0.4-9,1.2l-6-22.5c5-1.3,9.9-2,15.1-2L84.5,50.3C84.5,50.3,84.5,50.3,84.5,50.3z"/>
	<path class="st1" d="M75.4,51.5c-10.4,2.8-18,9.2-22.6,19l-21.1-9.8C39.4,44.3,52,33.7,69.4,29L75.4,51.5
		C75.4,51.5,75.4,51.5,75.4,51.5z"/>
	<path class="st2" d="M31.8,60.7l21.1,9.8c0,0,0,0,0,0c-5.5,11.9-4.3,24.7,3.4,35.3c0,0,0,0,0,0l-18.8,13.7
		C24.6,101.8,22.5,80.5,31.8,60.7z"/>
	<path class="st3" d="M59.3,109.5c13.4,13.9,35.5,14.3,49.4,0.9c0,0,0,0,0,0l16.2,16.8c-23.1,22.3-60,21.7-82.3-1.4
		c-1.8-1.9-3.7-4.1-5.2-6.2l18.8-13.7C57.1,107,58.3,108.4,59.3,109.5z"/>
	<path class="st4" d="M119.4,85.2c0-19.3-15.6-34.9-34.9-34.9V27c32.1,0,58.2,26.1,58.2,58.2c0,16.7-5.7,30.3-17.8,41.9l-16.2-16.8
		C115.9,103.4,119.4,95.3,119.4,85.2z"/>
</g>
</svg>
