<?xml version="1.0" encoding="utf-8"?>
<!-- Generator: Adobe Illustrator 21.0.2, SVG Export Plug-In . SVG Version: 6.00 Build 0)  -->
<svg version="1.1" id="Layer_1" xmlns="http://www.w3.org/2000/svg" xmlns:xlink="http://www.w3.org/1999/xlink" x="0px" y="0px"
	 viewBox="0 0 612 792" style="enable-background:new 0 0 612 792;" xml:space="preserve">
<style type="text/css">
	.st0{clip-path:url(#SVGID_2_);fill:#007CB0;}
</style>
<g>
	<defs>
		<rect id="SVGID_1_" x="296" y="386" width="19.6" height="20"/>
	</defs>
	<clipPath id="SVGID_2_">
		<use xlink:href="#SVGID_1_"  style="overflow:visible;"/>
	</clipPath>
	<path class="st0" d="M305.8,406c5.4,0,9.8-4.5,9.8-10c0-2.2-0.7-4.2-1.9-5.9c0.3,1.8-1.1,4.8-3.5,7.5c-3.1,3.5-6.8,5.2-8.4,3.9
		c0,0-1.9-1.6-1.9-2.2c0-0.6,3.7-3.3,4.5-3.2c0.7,0.2,1.2,1.9,1.2,1.9l4.4-5c0,0-1.9-0.2-2.1-0.9c-0.2-0.8,2.1-4.8,2.7-4.8
		c-1.4-0.8-3.1-1.3-4.8-1.3c-5.4,0-9.8,4.5-9.8,10C296,401.5,300.4,406,305.8,406"/>
</g>
</svg>
